<?xml version="1.0" standalone="no"?>
<!DOCTYPE svg PUBLIC "-//W3C//DTD SVG 20010904//EN"
 "http://www.w3.org/TR/2001/REC-SVG-20010904/DTD/svg10.dtd">
<svg version="1.0" xmlns="http://www.w3.org/2000/svg"
 width="512.000000pt" height="512.000000pt" viewBox="0 0 512.000000 512.000000"
 preserveAspectRatio="xMidYMid meet">

<g transform="translate(0.000000,512.000000) scale(0.100000,-0.100000)"
fill="#000000" stroke="none">
<path d="M708 5103 c-14 -9 -31 -27 -37 -40 -8 -17 -11 -271 -11 -813 l0 -790
-290 0 c-316 0 -334 -3 -358 -55 -17 -38 -17 -3312 0 -3350 26 -57 -22 -55
1093 -55 1115 0 1067 -2 1093 55 15 33 15 57 0 90 -26 57 15 55 -1023 55 -525
0 -955 2 -955 4 0 4 92 571 164 1016 19 118 71 440 116 715 44 275 83 506 85
513 3 9 53 12 200 12 154 0 202 3 225 15 23 12 48 53 120 200 l92 185 538 0
538 0 92 -185 c72 -147 97 -188 120 -200 25 -13 184 -15 1210 -15 649 0 1180
-2 1180 -4 0 -6 -56 -351 -125 -776 -164 -999 -235 -1443 -235 -1461 0 -19
-16 -19 -775 -19 -652 0 -780 -2 -804 -14 -66 -35 -66 -137 0 -172 24 -12 159
-14 854 -14 902 0 870 -2 893 57 7 15 74 415 151 888 77 473 167 1032 202
1242 54 337 60 386 49 413 -22 54 -48 60 -260 60 l-190 0 0 960 c0 1044 2
1002 -55 1028 -18 9 -128 12 -385 12 l-360 0 0 190 c0 125 -4 198 -12 215 -26
58 66 55 -1590 55 -1401 -1 -1525 -2 -1550 -17z m2952 -313 l0 -130 -1071 0
-1071 0 -29 -29 -29 -29 0 -771 0 -771 -169 0 c-150 0 -171 -2 -192 -19 -13
-10 -64 -100 -114 -200 -66 -133 -94 -181 -107 -181 -17 0 -18 55 -18 1130 l0
1130 1400 0 1400 0 0 -130z m800 -1230 l0 -900 -920 0 -920 0 -50 100 -50 100
630 0 c685 0 673 -1 698 55 15 33 15 57 0 90 -26 57 25 55 -1128 55 l-1060 0
0 700 0 700 1400 0 1400 0 0 -900z m-3800 -600 l0 -300 -98 0 c-101 0 -130 -9
-152 -49 -9 -18 -52 -268 -150 -876 -28 -176 -52 -327 -54 -335 -2 -8 -4 404
-5 916 0 512 2 934 6 937 3 4 107 7 230 7 l223 0 0 -300z"/>
<path d="M2265 4243 c-97 -35 -162 -102 -190 -196 -21 -71 -18 -133 9 -199
l24 -58 -34 -20 c-53 -33 -131 -126 -163 -193 -47 -101 -63 -209 -39 -262 25
-54 31 -55 488 -55 457 0 463 1 488 55 24 53 8 161 -39 262 -32 67 -110 160
-163 193 l-34 20 25 62 c42 103 20 224 -56 311 -71 81 -213 117 -316 80z m165
-218 c58 -58 14 -160 -69 -160 -70 0 -113 62 -91 130 21 65 108 81 160 30z
m-8 -376 c29 -7 64 -19 78 -27 44 -27 101 -86 121 -124 l19 -38 -280 0 -280 0
19 38 c36 70 119 134 196 151 56 13 67 12 127 0z"/>
<path d="M3111 4246 c-67 -37 -65 -143 4 -174 37 -17 1053 -17 1090 0 29 13
55 55 55 88 0 33 -26 75 -55 88 -40 18 -1061 16 -1094 -2z"/>
<path d="M3111 3846 c-67 -37 -65 -143 4 -174 37 -17 1053 -17 1090 0 29 13
55 55 55 88 0 33 -26 75 -55 88 -40 18 -1061 16 -1094 -2z"/>
<path d="M3111 3446 c-67 -37 -65 -143 4 -174 37 -17 1053 -17 1090 0 29 13
55 55 55 88 0 33 -26 75 -55 88 -40 18 -1061 16 -1094 -2z"/>
<path d="M4111 3046 c-87 -48 -50 -186 49 -186 51 0 100 49 100 99 0 75 -83
124 -149 87z"/>
<path d="M2111 2246 c-45 -25 -50 -50 -51 -223 l0 -163 -160 0 c-176 0 -206
-7 -228 -55 -9 -19 -12 -193 -12 -676 0 -705 -1 -692 55 -717 37 -17 1653 -17
1690 0 56 25 55 11 55 718 0 707 1 693 -55 718 -17 8 -83 12 -185 12 l-160 0
0 160 c0 176 -7 206 -55 228 -39 18 -861 16 -894 -2z m749 -286 l0 -100 -300
0 -300 0 0 100 0 100 300 0 300 0 0 -100z m398 -415 c3 -102 1 -111 -19 -127
-11 -10 -25 -15 -30 -12 -5 3 -9 2 -9 -3 0 -4 -144 -80 -319 -167 l-319 -160
-308 154 c-170 84 -315 158 -323 164 -7 5 -20 11 -28 12 -37 6 -43 24 -43 134
0 58 3 110 7 113 3 4 317 6 697 5 l691 -3 3 -110z m-1059 -520 c233 -118 338
-165 362 -165 24 0 129 48 363 165 181 91 330 165 332 165 2 0 3 -133 4 -295
l0 -295 -700 0 -700 0 0 295 c0 162 2 295 5 295 3 0 153 -74 334 -165z"/>
<path d="M2511 186 c-87 -48 -50 -186 49 -186 51 0 100 49 100 99 0 75 -83
124 -149 87z"/>
</g>
</svg>
